<svg id="圖層_1" data-name="圖層 1" xmlns="http://www.w3.org/2000/svg" viewBox="0 0 700 700"><title>logo</title><path d="M667.33,354.57C688.26,333.88,696,301.59,685,274c-4.94-12.34-12.88-22-21.93-31.38L602.13,179.5l-69.46-71.95c-5.16-5.35-10.3-10.72-15.49-16-18-18.45-43.34-26.11-68.55-21.69C430.7,73,417,83.58,404.33,95.81l-35.48,34.24L337.5,160.32c-.84.82-1.77,1.6-2.56,2.47-5.81,6.4-5.84,15-.11,21.44.79.89,1.66,1.73,2.49,2.59l43.18,44.72,73.27,75.9,72.46,75.06L568,425.74l2,2.06V406.59l-72.18,69.68L394,576.46q-6.08,5.87-12.15,11.73c-10.48,10.07-21.95,14.21-36.45,13.37-8.1-.47-15,7.25-15,15v.37c0,8.44,6.89,14.53,15,15,21.77,1.24,42.16-7.33,57.72-22.3Q410,603,416.86,596.37L477.37,538l80.83-78,72.65-70.14c11.95-11.54,24.4-22.74,35.94-34.7l.54-.52c5.83-5.62,5.66-15.55,0-21.21a15.22,15.22,0,0,0-21.21,0L617,361.45l-68.44,66.07-80.73,77.93L403,568,385,585.45c-1.29,1.25-2.58,2.51-3.88,3.75l-1.07,1a31.79,31.79,0,0,1-7.27,5.44c-1.58,1-3.22,1.79-4.87,2.62,0,0-2.3,1-1.08.5,1-.41-2.62.89-2.58.88-7.66,2.49-10.56,2.74-18.82,2.27l15,15v-.37l-15,15c21.09,1.23,41.44-6.77,56.69-21.23,2.64-2.49,5.23-5,7.84-7.56l41.91-40.46L564.13,453.92l27-26.12c5.9-5.69,5.56-15.45,0-21.21l-80-82.86L384.79,192.8,356,163l4.39,10.61v-.07L356,184.14l64.23-62q5.47-5.3,11-10.58l.72-.7c.38-.35.74-.71,1.12-1s4.49-3.58,2.52-2.19a64,64,0,0,1,9-5.37c.62-.3,1.25-.6,1.88-.87-2.42,1-.22.13.25,0,1.75-.53,3.46-1.15,5.23-1.6s3.53-.79,5.32-1.13c-2.81.53,1.09-.08,2.08-.14a66,66,0,0,1,10.14.24c-3.22-.3,2,.41,2.7.57,1.55.34,3.09.75,4.6,1.22s3,1,4.52,1.59c-2.45-1,1.8,1,2.66,1.41,1.43.78,2.82,1.61,4.19,2.5.58.38,3.93,2.91,2.09,1.4a69.12,69.12,0,0,1,5.35,4.92l1.27,1.32Q525,142.71,553,171.83L629,250.47q9,9.33,18,18.66c1,1.09,2.09,2.2,3.08,3.35.46.54.93,1.09,1.37,1.66-1.46-1.89,0,.05.2.39.86,1.4,1.79,2.74,2.6,4.17s1.53,2.86,2.24,4.32c1.29,2.64.33.81.11.22.4,1.07.79,2.14,1.14,3.23.48,1.52.91,3,1.28,4.6.16.72,1,4.83.71,3.35-.27-1.73,0,.48.07.7.07.9.15,1.8.19,2.71.09,1.8.1,3.61,0,5.41,0,.7-.62,6-.12,2.75-.24,1.57-.54,3.12-.91,4.67s-.78,3.08-1.27,4.59c-.3.94-2.06,5.18-1,2.81a63.81,63.81,0,0,1-5.13,9.07c-.39.58-.8,1.16-1.22,1.72,1.44-1.93,0,0-.31.3-1.31,1.42-2.59,2.85-4,4.21a15,15,0,1,0,21.21,21.21Z"/><path d="M562.41,420.49l89.25,89.25,12.77,12.77a15,15,0,0,0,21.21-21.22L596.39,412l-12.77-12.77a15,15,0,0,0-21.21,21.22Z"/><path d="M51.14,333.14c-1.2-1.19-2.37-2.4-3.49-3.67-.23-.26-2.12-2.55-1.08-1.24s-.48-.67-.53-.74a69.31,69.31,0,0,1-5.52-9.65c1.15,2.49-.48-1.39-.74-2.16-.5-1.51-1-3-1.33-4.58-.44-1.76-.78-3.54-1.07-5.33.47,2.93-.07-1.68-.11-2.75a59.75,59.75,0,0,1,.36-9.46c-.36,3.12.32-1.27.49-2a60.29,60.29,0,0,1,1.64-5.92c.22-.65.46-1.29.69-1.94.77-2.24-.93,1.93.06-.23.67-1.48,1.39-2.93,2.18-4.34s1.65-2.83,2.56-4.19c.2-.29,1.88-2.69.9-1.36s1.59-1.89,1.53-1.83c4.53-5.16,9.52-9.95,14.28-14.89l72.36-75,63.22-65.48c1.38-1.43,2.74-2.86,4.12-4.27,1.54-1.56,3.13-3,4.8-4.46,1.3-1.11,0,0-.25.14.75-.56,1.53-1.1,2.31-1.62,1.54-1,3.14-2,4.77-2.88.56-.3,5.31-2.46,2.66-1.4,1.27-.51,2.56-1,3.86-1.39,1.73-.56,3.49-1,5.26-1.43.94-.22,5.76-.87,2.7-.57a65.07,65.07,0,0,1,9.47-.28c.73,0,5.91.77,2.75.18,1.78.33,3.56.67,5.32,1.13,1.54.4,3.07.86,4.58,1.38.37.13,3.05,1.12,1.42.47s.6.27.74.34a67.08,67.08,0,0,1,9.64,5.67c-1.92-1.37,1.45,1.23,2,1.7s1.09,1,1.63,1.52l.83.8q2.1,2,4.18,4l69,66.64,1.9,1.83-4.39-10.61v.07l4.39-10.61-80,82.86L134.86,376.56l-28.78,29.81c-5.55,5.75-5.92,15.5,0,21.21l73.58,71L283.93,599.27c3.61,3.49,7.21,7,10.84,10.48,15.32,14.66,35.78,22.83,57.08,21.59l-15-15v.37l15-15a62.13,62.13,0,0,1-10.74-.21c2.27.27-2.2-.47-2.85-.62a58.8,58.8,0,0,1-6-1.69c-.73-.25-1.47-.51-2.19-.79.32.13,1.56.71,0,0s-3.31-1.62-4.9-2.54a34.57,34.57,0,0,1-8-5.85c-.86-.81-1.71-1.64-2.56-2.47l-14.87-14.35-61-58.88-80.3-77.51L87.11,367.86C75.3,356.47,63.75,344.7,51.64,333.62c-.17-.15-.33-.32-.5-.48a15.27,15.27,0,0,0-21.21,0c-5.67,5.67-5.85,15.57,0,21.21L59.5,382.9l69.71,67.3,81.36,78.54L275.07,591c15.69,15.15,30.38,31.85,52.21,38a75.52,75.52,0,0,0,24.57,2.67c8.1-.47,15-6.5,15-15v-.37c0-7.76-6.88-15.47-15-15a68,68,0,0,1-7.69.06c-.09,0-5.06-.58-2.14-.13-1-.16-2-.35-3-.57a77.16,77.16,0,0,1-7.46-2.1c-4.39-1.41,1.94,1.17-2.2-.89-1.42-.7-2.83-1.42-4.2-2.21a35.75,35.75,0,0,1-8.59-6.44l-.59-.57c-3-2.9-6-5.82-9-8.73L264,538.38,153.82,432l-26.53-25.62v21.21L156.78,397l68-70.49,75.64-78.34,53.36-55.28c2.86-3,5.88-5.84,8.62-8.93a15.5,15.5,0,0,0-.16-21.47c-.83-.9-1.79-1.72-2.67-2.57l-13.14-12.69c-20-19.3-39.81-38.81-60-57.91a76.09,76.09,0,0,0-84-14.09c-11,4.94-19.53,13-27.76,21.55L113.8,159.94,44.34,231.89C39.16,237.25,34,242.58,28.81,248A76.49,76.49,0,0,0,9.07,317.08c3,14.12,10.65,27.18,20.86,37.27a15,15,0,0,0,21.21-21.21Z"/><path d="M113.64,399.05,24.38,488.31,11.61,501.07a15.27,15.27,0,0,0,0,21.22,15.22,15.22,0,0,0,21.22,0L122.08,433l12.77-12.76a15,15,0,1,0-21.21-21.22Z"/></svg>