<svg id="圖層_1" data-name="圖層 1" xmlns="http://www.w3.org/2000/svg" viewBox="0 0 1920 1080"><defs><style>.cls-1{font-size:609.98px;font-family:DunbarTall-Book, Dunbar Tall;}.cls-1,.cls-2{fill:#fff;}</style></defs><title>title-white</title><text class="cls-1" transform="translate(789.45 752.51)">QUI</text><path class="cls-2" d="M666.06,531.44c18.45-18.32,25.17-46.66,15.32-71-4.31-10.67-11.2-19-19-27.15L610.89,380l-59.27-61.4c-4.24-4.39-8.45-8.83-12.73-13.18-16-16.26-38.43-23-60.75-18.83-15.54,2.89-27.36,12.22-38.36,22.84L409.5,338.66l-26,25.13c-6.73,6.5-9.17,15.55-2.19,23.41.66.75,1.38,1.44,2.07,2.15l98.51,102,96.88,100.36,1.64,1.7V572.23L519.8,630.7l-88.13,85.08q-5.24,5.07-10.48,10.12a41.32,41.32,0,0,1-4.35,3.88,54.86,54.86,0,0,1-6.88,4c-.25.13-2.63,1-.76.34a46.22,46.22,0,0,1-4.46,1.42c-1,.27-2,.47-3,.72-2.52.62.14.11-1.37.26a56,56,0,0,1-8.49.11c-8.1-.45-15,7.24-15,15V752c0,8.43,6.89,14.55,15,15,19.06,1,36.86-6.46,50.49-19.55,3.92-3.76,7.82-7.55,11.73-11.32l51.09-49.32,130.11-125.6,30.78-29.72c5.83-5.63,5.66-15.55,0-21.21a15.21,15.21,0,0,0-21.21,0l-82.87,80L439.11,708.84l-16.4,15.84c-9.56,9.22-17.94,13-30.85,12.27l15,15v-.31l-15,15c18.5,1,36.24-6,49.64-18.65,2.23-2.1,4.41-4.26,6.61-6.39l35.31-34.08,95.11-91.82,23.05-22.25c5.91-5.7,5.56-15.46,0-21.22l-67.17-69.58-107.18-111L402.47,366l4.39,10.6v-.05l-4.39,10.61,53.87-52q4.82-4.65,9.64-9.3l.72-.7a.94.94,0,0,0,.1-.1c.53-.5,1.07-1,1.62-1.49.19-.17,2.34-1.92,1.28-1.12-.7.54,2-1.31,2.59-1.68,1.2-.75,2.43-1.44,3.69-2.08.62-.32,1.25-.62,1.88-.92-.25.12-2,.77-.37.18s3-1.07,4.6-1.49c1.33-.37,2.68-.64,4-.92,2.84-.59-1.46,0,1.44-.18a64.2,64.2,0,0,1,8.88.11c1.78.15-.35-.05-.59-.1.67.13,1.35.25,2,.39,1.34.28,2.68.61,4,1s2.63.84,3.92,1.33c1.61.63-.15,0-.39-.15.83.41,1.67.81,2.49,1.25,1.24.67,2.46,1.38,3.63,2.15.58.38,3.31,2.45,1.57,1a56.48,56.48,0,0,1,4.32,4l1.11,1.14q23.6,24.36,47.11,48.8l64,66.29q7.9,8.18,15.8,16.36c.4.42.8.83,1.19,1.25s2.63,3.06,2.11,2.38,1.31,2,1.69,2.58q1.11,1.8,2.07,3.69c.32.62.63,1.25.92,1.88-.65-1.4-.29-.81.07.28a64.78,64.78,0,0,1,2.28,8.65c.33,1.76,0-.34-.06-.59.06.68.12,1.36.16,2,.1,1.6.13,3.19.08,4.79,0,1.37-.14,2.73-.29,4.09.29-2.63-.15.46-.36,1.42-.3,1.34-.65,2.67-1.06,4-.21.66-.43,1.31-.66,2-.09.26-1.15,2.81-.53,1.42.49-1.07-1.07,2-1.39,2.6-.68,1.23-1.42,2.43-2.2,3.6-.4.59-.8,1.18-1.22,1.75.19-.25,1.24-1.5.12-.22s-2.28,2.52-3.49,3.73a15,15,0,1,0,21.21,21.21Z"/><path class="cls-2" d="M574,587.25l75.67,75.67,10.71,10.71a15,15,0,0,0,21.22-21.21L605.9,576.75,595.18,566A15,15,0,0,0,574,587.25Z"/><path class="cls-2" d="M144.33,510c-1-1-2-2.1-3-3.17-1.77-1.91.23.66-1.17-1.49-.78-1.19-1.56-2.36-2.26-3.59-.35-.61-.68-1.22-1-1.84-.12-.24-1.35-2.76-.72-1.36a29,29,0,0,0-1-2.73c-.42-1.31-.79-2.64-1.11-4-.14-.61-.82-4.17-.6-2.72.26,1.72,0-.52-.06-.73-.06-.91-.13-1.81-.15-2.73-.05-1.36,0-2.73,0-4.1.05-1,.45-4.06,0-1.46a63.74,63.74,0,0,1,2.4-9.32c.82-2.57-.61.84.67-1.54.66-1.25,1.29-2.5,2-3.71s1.52-2.41,2.35-3.57c-1.32,1.84,1.31-1.45,1.82-2,3.67-3.95,7.48-7.77,11.22-11.64L215,384.92l53.14-55.05c1.2-1.23,2.38-2.49,3.59-3.71s2.47-2.4,3.77-3.54,0-.07-.22.12c.57-.42,1.16-.82,1.75-1.22a48.74,48.74,0,0,1,4.22-2.55c.7-.37,3.73-1.79,1.46-.84,1.27-.53,2.59-1,3.9-1.39s2.65-.76,4-1.06c.67-.15,1.35-.26,2-.4,2.32-.48-2.28.17.08,0a54.74,54.74,0,0,1,8.2-.14c.68,0,1.36.1,2,.16-.25,0-2.35-.39-.59-.06,1.58.29,3.15.61,4.7,1,1.33.36,2.64.81,4,1.25,2.57.85-.86-.62,1.54.67,1.24.66,2.5,1.29,3.71,2,.6.36,1.2.75,1.79,1.14.21.14,2.45,1.72,1.4.92-.69-.52,1.83,1.61,2.37,2.11l.6.56.75.73,3.56,3.43,58.4,56.38,1.55,1.5-4.39-10.61v.06l4.39-10.61-67.17,69.58-107.19,111L187.6,572.05c-5.56,5.75-5.93,15.49,0,21.21l62.31,60.16,88.28,85.22c3.08,3,6.13,6,9.23,8.91,13.41,12.79,31.27,19.94,49.9,18.9l-15-15v.31l15-15a49.17,49.17,0,0,1-9.24-.19c2.93.39-2-.51-2.11-.53-1.52-.36-3-.86-4.48-1.28-3.13-.88-9.41-4.93-12.38-7.72l-1.77-1.71-12.87-12.42-51.88-50.09-128-123.56L144.33,510a15.27,15.27,0,0,0-21.21,0c-5.67,5.67-5.85,15.57,0,21.22l84.26,81.34L330.92,731.86l15.13,14.61c13.9,13.41,31.69,21.36,51.27,20.29,8.09-.44,15-6.51,15-15v-.31c0-7.77-6.88-15.45-15-15a57.56,57.56,0,0,1-6.95,0c-.34,0-3.48-.4-1.85-.15s-1.49-.33-1.82-.4a52.29,52.29,0,0,1-6.72-2c.6.23,2.08,1.08-.76-.33-1.42-.71-2.83-1.45-4.19-2.27a24.62,24.62,0,0,1-6-4.62l-.49-.47c-2.59-2.47-5.15-5-7.72-7.46l-36.1-34.85L231.34,593.8l-22.53-21.75v21.21l82.65-85.62L400.79,394.4c2.37-2.46,4.87-4.84,7.13-7.39,7.22-8.14,4.32-17.11-2.49-23.68l-11.1-10.72c-16.91-16.32-33.62-32.87-50.73-49a66.77,66.77,0,0,0-73.69-12.39c-9.49,4.26-16.9,11.16-24,18.51l-51.74,53.59L135.33,424.3c-4.38,4.54-8.81,9.05-13.16,13.64A67.1,67.1,0,0,0,105,499.19a66.4,66.4,0,0,0,18.15,32.07A15,15,0,0,0,144.33,510Z"/><path class="cls-2" d="M194,565.85l-75.67,75.67-10.72,10.71a15,15,0,1,0,21.22,21.21l75.67-75.66,10.71-10.72A15,15,0,1,0,194,565.85Z"/></svg>